<?xml version="1.0" encoding="iso-8859-1"?>
<!-- Generator: Adobe Illustrator 18.0.0, SVG Export Plug-In . SVG Version: 6.00 Build 0)  -->
<!DOCTYPE svg PUBLIC "-//W3C//DTD SVG 1.1//EN" "http://www.w3.org/Graphics/SVG/1.1/DTD/svg11.dtd">
<svg version="1.1" id="Capa_1" xmlns="http://www.w3.org/2000/svg" xmlns:xlink="http://www.w3.org/1999/xlink" x="0px" y="0px"
	 viewBox="0 0 473.981 473.981" style="enable-background:new 0 0 473.981 473.981;" xml:space="preserve">
<g>
	<path style="fill:#020202;" d="M33.245,291.143V53.277c0-1.972,1.607-3.579,3.572-3.579h350.514c1.965,0,3.57,1.607,3.57,3.579
		V234.11h33.245V53.277c0-20.307-16.508-36.824-36.815-36.824H36.817C16.51,16.452,0,32.97,0,53.277v237.866
		c0,20.308,16.51,36.825,36.817,36.825h117.491v47.724h-18.521c-9.187,0-16.622,7.442-16.622,16.623
		c0,9.179,7.436,16.622,16.622,16.622h152.571c9.188,0,16.623-7.443,16.623-16.622c0-9.181-7.436-16.623-16.623-16.623h-18.537
		v-47.724h56.36v-33.245H36.817C34.853,294.723,33.245,293.115,33.245,291.143z"/>
	<path style="fill:#020202;" d="M452.765,254.888h-84.588c-11.703,0-21.217,9.52-21.217,21.223v160.193
		c0,11.706,9.514,21.225,21.217,21.225h84.588c11.704,0,21.217-9.52,21.217-21.225V276.111
		C473.981,264.407,464.469,254.888,452.765,254.888z M371.894,279.821h77.154v139.091h-77.154V279.821z M410.463,446.239
		c-1.558,0-2.954-0.487-4.237-1.168c-2.905-1.551-4.967-4.522-4.967-8.052c0-5.088,4.122-9.212,9.204-9.212
		c5.096,0,9.22,4.124,9.22,9.212c0,3.53-2.046,6.501-4.967,8.052C413.416,445.752,412.021,446.239,410.463,446.239z"/>
</g>
<g>
</g>
<g>
</g>
<g>
</g>
<g>
</g>
<g>
</g>
<g>
</g>
<g>
</g>
<g>
</g>
<g>
</g>
<g>
</g>
<g>
</g>
<g>
</g>
<g>
</g>
<g>
</g>
<g>
</g>
</svg>
